HIERARCHY
ROOT hip
{
	OFFSET 0.000000 0.000000 0.000000
	CHANNELS 6 Xposition Yposition Zposition Xrotation Zrotation Yrotation 
	JOINT abdomen
	{
		OFFSET 0.000000 3.422050 0.000000
		CHANNELS 3 Xrotation Zrotation Yrotation 
		JOINT chest
		{
			OFFSET 0.000000 8.486693 -0.684411
			CHANNELS 3 Xrotation Zrotation Yrotation 
			JOINT neck
			{
				OFFSET 0.000000 10.266162 -0.273764
				CHANNELS 3 Xrotation Zrotation Yrotation 
				JOINT head
				{
					OFFSET 0.000000 3.148285 0.000000
					CHANNELS 3 Xrotation Zrotation Yrotation 
					End Site
					{
						OFFSET 0.000000 3.148289 0.000000
					}
				}
			}
			JOINT lCollar
			{
				OFFSET 3.422053 6.707223 -0.821293
				CHANNELS 3 Yrotation Zrotation Xrotation 
				JOINT lShldr
				{
					OFFSET 3.285171 0.000000 0.000000
					CHANNELS 3 Zrotation Yrotation Xrotation 
					JOINT lForeArm
					{
						OFFSET 10.129278 0.000000 0.000000
						CHANNELS 3 Yrotation Zrotation Xrotation 
						JOINT lHand
						{
							OFFSET 8.486692 0.000000 0.000000
							CHANNELS 3 Zrotation Yrotation Xrotation 
							End Site
							{
								OFFSET 4.106464 0.000000 0.000000
							}
						}
					}
				}
			}
			JOINT rCollar
			{
				OFFSET -3.558935 6.707223 -0.821293
				CHANNELS 3 Yrotation Zrotation Xrotation 
				JOINT rShldr
				{
					OFFSET -3.148289 0.000000 0.000000
					CHANNELS 3 Zrotation Yrotation Xrotation 
					JOINT rForeArm
					{
						OFFSET -10.266159 0.000000 0.000000
						CHANNELS 3 Yrotation Zrotation Xrotation 
						JOINT rHand
						{
							OFFSET -8.349810 0.000000 0.000000
							CHANNELS 3 Zrotation Yrotation Xrotation 
							End Site
							{
								OFFSET -4.106464 0.000000 0.000000
							}
						}
					}
				}
			}
		}
	}
	JOINT lThigh
	{
		OFFSET 5.338403 -1.642589 1.368821
		CHANNELS 3 Xrotation Zrotation Yrotation 
		JOINT lShin
		{
			OFFSET -2.053232 -20.121670 0.000000
			CHANNELS 3 Xrotation Zrotation Yrotation 
			JOINT lFoot
			{
				OFFSET 0.000000 -19.300380 -1.231939
				CHANNELS 3 Xrotation Yrotation Zrotation 
				End Site
				{
					OFFSET 0.000000 -2.463878 4.653993
				}
			}
		}
	}
	JOINT rThigh
	{
		OFFSET -5.338403 -1.642589 1.368821
		CHANNELS 3 Xrotation Zrotation Yrotation 
		JOINT rShin
		{
			OFFSET 2.053232 -20.121670 0.000000
			CHANNELS 3 Xrotation Zrotation Yrotation 
			JOINT rFoot
			{
				OFFSET 0.000000 -19.300380 -1.231939
				CHANNELS 3 Xrotation Yrotation Zrotation 
				End Site
				{
					OFFSET 0.000000 -2.463878 4.653993
				}
			}
		}
	}
}
MOTION
Frames: 13
Frame Time: 0.033264
1.192484 5.468124 13.922322 0.994064 48.999352 89.992828 20.564034 0.378217 -1.095417 15.280858 -2.464251 -0.978237 0.000000 0.000000 0.000000 14.137475 7.121342 10.240848 0.258852 -4.545805 -0.047473 1.365772 2.023389 -0.005612 -9.097213 16.948343 -0.268003 -68.013962 -27.007565 -41.999805 0.808803 30.704248 -4.972445 18.424564 -3.841374 -1.475759 31.189564 4.996825 -8.000095 -16.950180 13.070797 19.009092 -108.153366 4.973292 0.037163 136.221634 -1.972135 -0.091481 40.886997 0.935430 2.654263 -90.117981 -46.130135 0.544776 121.112587 11.268569 -0.156987 11.834976 8.418776 2.057412 
1.192484 5.468124 13.922322 0.994064 48.999352 89.992828 20.564034 0.378217 -1.095417 15.280858 -2.464251 -0.978237 0.000000 0.000000 0.000000 14.063125 7.092197 10.185014 0.258852 -4.545805 -0.047473 1.365772 2.023389 -0.005612 -9.097213 16.948343 -0.268003 -68.013962 -27.007565 -41.999805 0.808803 30.704248 -4.972445 18.424564 -3.841374 -1.475759 31.997581 4.996826 -8.000087 -17.106440 13.068965 19.008715 -108.153366 4.973292 0.037163 136.221634 -1.972135 -0.091481 40.886997 0.935430 2.654263 -90.117981 -46.130135 0.544776 121.112587 11.268569 -0.156987 11.834976 8.418776 2.057412 
1.192484 5.468124 13.922322 0.994064 48.999352 89.992828 20.564034 0.378217 -1.095417 15.280858 -2.464251 -0.978237 0.000000 0.000000 0.000000 13.988799 7.062977 10.129215 0.258852 -4.545805 -0.047473 1.365772 2.023389 -0.005612 -9.097213 16.948343 -0.268003 -68.013962 -27.007565 -41.999805 0.808803 30.704248 -4.972445 18.424564 -3.841374 -1.475759 32.805595 4.996827 -8.000079 -17.262651 13.067134 19.008345 -108.153366 4.973292 0.037163 136.221634 -1.972135 -0.091481 40.886997 0.935430 2.654263 -90.117981 -46.130135 0.544776 121.112587 11.268569 -0.156987 11.834976 8.418776 2.057412 
1.192484 5.468124 13.922322 0.994064 48.999352 89.992828 20.564034 0.378217 -1.095417 15.280858 -2.464251 -0.978237 0.000000 0.000000 0.000000 13.914504 7.033685 10.073456 0.258852 -4.545805 -0.047473 1.365772 2.023389 -0.005612 -9.097213 16.948343 -0.268003 -68.013962 -27.007565 -41.999805 0.808803 30.704248 -4.972445 18.424564 -3.841374 -1.475759 33.613529 4.996829 -8.000071 -17.418812 13.065300 19.007978 -108.153366 4.973292 0.037163 136.221634 -1.972135 -0.091481 40.886997 0.935430 2.654263 -90.117981 -46.130135 0.544776 121.112587 11.268569 -0.156987 11.834976 8.418776 2.057412 
1.192484 5.468124 13.922322 0.994064 48.999352 89.992828 20.564034 0.378217 -1.095417 15.280858 -2.464251 -0.978237 0.000000 0.000000 0.000000 13.840240 7.004319 10.017735 0.258852 -4.545805 -0.047473 1.365772 2.023389 -0.005612 -9.097213 16.948343 -0.268003 -68.013962 -27.007565 -41.999805 0.808803 30.704248 -4.972445 18.424564 -3.841374 -1.475759 34.421314 4.996831 -8.000065 -17.574921 13.063466 19.007616 -108.153366 4.973292 0.037163 136.221634 -1.972135 -0.091481 40.886997 0.935430 2.654263 -90.117981 -46.130135 0.544776 121.112587 11.268569 -0.156987 11.834976 8.418776 2.057412 
1.192484 5.468124 13.922322 0.994064 48.999352 89.992828 20.564034 0.378217 -1.095417 15.280858 -2.464251 -0.978237 0.000000 0.000000 0.000000 13.766007 6.974882 9.962056 0.258852 -4.545805 -0.047473 1.365772 2.023389 -0.005612 -9.097213 16.948343 -0.268003 -68.013962 -27.007565 -41.999805 0.808803 30.704248 -4.972445 18.424564 -3.841374 -1.475759 35.228848 4.996832 -8.000055 -17.730984 13.061632 19.007259 -108.153366 4.973292 0.037163 136.221634 -1.972135 -0.091481 40.886997 0.935430 2.654263 -90.117981 -46.130135 0.544776 121.112587 11.268569 -0.156987 11.834976 8.418776 2.057412 
1.192484 5.468124 13.922322 0.994064 48.999352 89.992828 20.564034 0.378217 -1.095417 15.280858 -2.464251 -0.978237 0.000000 0.000000 0.000000 13.691802 6.945368 9.906415 0.258852 -4.545805 -0.047473 1.365772 2.023389 -0.005612 -9.097213 16.948343 -0.268003 -68.013962 -27.007565 -41.999805 0.808803 30.704248 -4.972445 18.424564 -3.841374 -1.475759 36.036064 4.996835 -8.000050 -17.886993 13.059798 19.006907 -108.153366 4.973292 0.037163 136.221634 -1.972135 -0.091481 40.886997 0.935430 2.654263 -90.117981 -46.130135 0.544776 121.112572 11.268570 -0.156988 11.834976 8.418776 2.057412 
1.192484 5.468124 13.922322 0.994064 48.999352 89.992828 20.564034 0.378217 -1.095417 15.280858 -2.464251 -0.978237 0.000000 0.000000 0.000000 13.617626 6.915783 9.850811 0.258852 -4.545805 -0.047473 1.365772 2.023389 -0.005612 -9.097213 16.948343 -0.268003 -68.013962 -27.007565 -41.999805 0.808803 30.704248 -4.972445 18.424564 -3.841374 -1.475759 36.842876 4.996836 -8.000041 -18.042950 13.057963 19.006563 -108.153366 4.973292 0.037163 136.221634 -1.972135 -0.091481 40.886997 0.935430 2.654263 -90.117981 -46.130135 0.544776 121.112587 11.268569 -0.156987 11.834976 8.418776 2.057412 
1.192484 5.468124 13.922322 0.994064 48.999352 89.992828 20.564034 0.378217 -1.095417 15.280858 -2.464251 -0.978237 0.000000 0.000000 0.000000 13.543485 6.886127 9.795251 0.258852 -4.545805 -0.047473 1.365772 2.023389 -0.005612 -9.097213 16.948343 -0.268003 -68.013962 -27.007565 -41.999805 0.808803 30.704248 -4.972445 18.424564 -3.841374 -1.475759 37.649208 4.996840 -8.000034 -18.198854 13.056129 19.006224 -108.153366 4.973292 0.037163 136.221634 -1.972135 -0.091481 40.886997 0.935430 2.654263 -90.117981 -46.130135 0.544776 121.112587 11.268569 -0.156987 11.834976 8.418776 2.057412 
1.192484 5.468124 13.922322 0.994064 48.999352 89.992828 20.564034 0.378217 -1.095417 15.280858 -2.464251 -0.978237 0.000000 0.000000 0.000000 13.469369 6.856397 9.739728 0.258852 -4.545805 -0.047473 1.365772 2.023389 -0.005612 -9.097213 16.948343 -0.268003 -68.013962 -27.007565 -41.999805 0.808803 30.704248 -4.972445 18.424564 -3.841374 -1.475759 38.454979 4.996840 -8.000025 -18.354708 13.054292 19.005886 -108.153366 4.973292 0.037163 136.221634 -1.972135 -0.091481 40.886997 0.935430 2.654263 -90.117981 -46.130135 0.544776 121.112572 11.268570 -0.156988 11.834976 8.418776 2.057412 
1.192484 5.468124 13.922322 0.994064 48.999352 89.992828 20.564034 0.378217 -1.095417 15.280858 -2.464251 -0.978237 0.000000 0.000000 0.000000 13.395288 6.826595 9.684247 0.258852 -4.545805 -0.047473 1.365772 2.023389 -0.005612 -9.097213 16.948343 -0.268003 -68.013962 -27.007565 -41.999805 0.808803 30.704248 -4.972445 18.424564 -3.841374 -1.475759 39.260117 4.996843 -8.000017 -18.510508 13.052458 19.005556 -108.153366 4.973292 0.037163 136.221634 -1.972135 -0.091481 40.886997 0.935430 2.654263 -90.117981 -46.130135 0.544776 121.112587 11.268569 -0.156987 11.834976 8.418776 2.057412 
1.192484 5.468124 13.922322 0.994064 48.999352 89.992828 20.564034 0.378217 -1.095417 15.280858 -2.464251 -0.978237 0.000000 0.000000 0.000000 13.321238 6.796721 9.628805 0.258852 -4.545805 -0.047473 1.365772 2.023389 -0.005612 -9.097213 16.948343 -0.268003 -68.013962 -27.007565 -41.999805 0.808803 30.704248 -4.972445 18.424564 -3.841374 -1.475759 40.064537 4.996846 -8.000012 -18.666256 13.050623 19.005232 -108.153366 4.973292 0.037163 136.221634 -1.972135 -0.091481 40.886997 0.935430 2.654263 -90.117981 -46.130135 0.544776 121.112587 11.268569 -0.156987 11.834976 8.418776 2.057412 
1.192484 5.468124 13.922322 0.994064 48.999352 89.992828 20.564034 0.378217 -1.095417 15.280858 -2.464251 -0.978237 0.000000 0.000000 0.000000 13.247213 6.766771 9.573401 0.258852 -4.545805 -0.047473 1.365772 2.023389 -0.005612 -9.097213 16.948343 -0.268003 -68.013962 -27.007565 -41.999805 0.808803 30.704248 -4.972445 18.424564 -3.841374 -1.475759 40.868149 4.996849 -8.000003 -18.821941 13.048784 19.004913 -108.153366 4.973292 0.037163 136.221634 -1.972135 -0.091481 40.886997 0.935430 2.654263 -90.117981 -46.130135 0.544776 121.112572 11.268570 -0.156988 11.834976 8.418776 2.057412 
